PathFileType	4	(X/Y/Z)	Run_400 01
DataRate	CameraRate	NumFrames	NumMarkers	Units	OrigDataRate	OrigDataStartFrame	OrigNumFrames
120	120	4	42	mm	120	511	128
Frame#	Time	LASI			RASI			LPSI			RTH1			RTH2			RTH3			LTH1			LTH2			LTH3			RTB1			RTB2			RTB3			LTB1			LTB2			LTB3			RCAL			RTOE			RMT5			LCAL			LTOE			LMT5			LACR			RACR			CLAV			C7			RUA1			RUA2			RUA3			RLEL			RMEL			LUA1			LUA2			LUA3			LLEL			LMEL			RFAsuperior			RFAradius			LFAsuperior			LFAradius			LFAulna			RFAulna			RPSI		
		X1	Y1	Z1	X2	Y2	Z2	X3	Y3	Z3	X4	Y4	Z4	X5	Y5	Z5	X6	Y6	Z6	X7	Y7	Z7	X8	Y8	Z8	X9	Y9	Z9	X10	Y10	Z10	X11	Y11	Z11	X12	Y12	Z12	X13	Y13	Z13	X14	Y14	Z14	X15	Y15	Z15	X16	Y16	Z16	X17	Y17	Z17	X18	Y18	Z18	X19	Y19	Z19	X20	Y20	Z20	X21	Y21	Z21	X22	Y22	Z22	X23	Y23	Z23	X24	Y24	Z24	X25	Y25	Z25	X26	Y26	Z26	X27	Y27	Z27	X28	Y28	Z28	X29	Y29	Z29	X30	Y30	Z30	X31	Y31	Z31	X32	Y32	Z32	X33	Y33	Z33	X34	Y34	Z34	X35	Y35	Z35	X36	Y36	Z36	X37	Y37	Z37	X38	Y38	Z38	X39	Y39	Z39	X40	Y40	Z40	X41	Y41	Z41	X42	Y42	Z42	

511	  4.258333	1136.714216	1033.540471	-420.975520	1126.970313	1013.714192	-189.526297	971.938926	1082.250094	-360.564780	1012.499672	877.031368	-132.714083	1009.705105	720.192096	-166.176281	911.272264	665.689872	-178.867180	1141.195575	913.523241	-492.637511	1258.507855	876.473460	-465.277252	1278.387408	736.580942	-463.378430	835.487456	435.494285	-236.213856	757.753310	423.611792	-175.577587	709.505012	303.938259	-236.545383	1362.373677	531.609035	-406.476740	1274.366334	460.795760	-446.761454	1255.194031	362.013288	-381.936559	541.505521	293.411344	-252.555154	638.921725	111.360840	-293.544305	600.817728	 92.575770	-193.243119	1093.914803	300.383863	-361.520543	1272.112357	196.743009	-328.384224	1244.391281	161.810208	-427.591468	1080.262493	1522.391789	-480.885237	1155.475626	1509.037695	-131.551806	1190.270098	1464.084011	-302.995240	1075.066108	1545.175385	-306.741256	1139.270931	1426.635662	-80.944507	1144.725765	1336.128167	-93.174250	1059.674817	1339.527954	-57.223233	1044.531928	1224.270485	-29.043247	1009.916805	1219.686633	-92.846465	1013.736035	1496.118182	-518.652919	952.399979	1471.566510	-469.623019	946.330647	1417.048725	-539.152971	824.581270	1378.140525	-540.865297	822.651084	1376.836826	-466.925294	1140.577412	1224.492462	-54.793810	1284.800568	1193.918769	-151.780017	876.771851	1317.799300	-563.879363	1002.507141	1164.041291	-534.621047	943.542691	1136.875716	-551.935910	1274.093930	1127.713910	-143.051777	970.798870	1078.723669	-261.396874	
512	  4.266667	1136.482766	1037.586715	-421.068646	1127.711546	1018.105261	-189.629250	973.250148	1087.819419	-359.890859	1011.612795	882.672944	-132.417871	1007.246833	724.991534	-166.681640	909.236030	671.391335	-180.690033	1139.035804	917.679940	-494.002875	1255.899280	876.923191	-467.810544	1273.264995	735.892834	-459.468444	828.533300	442.716431	-239.307559	753.299074	432.233099	-175.830021	697.385364	316.254472	-236.803968	1370.603017	532.686168	-407.235817	1290.353183	453.754565	-447.762625	1279.845248	353.692073	-382.542150	530.264021	314.795855	-246.664577	614.970912	127.059633	-292.814973	579.884166	109.643349	-191.884020	1125.177208	277.829795	-361.549675	1311.328917	190.100306	-327.703979	1286.247641	150.660709	-426.093477	1080.664009	1525.689717	-482.225529	1156.263527	1514.321800	-133.690311	1190.515084	1467.855367	-304.552326	1075.489335	1549.073524	-308.382248	1140.723466	1433.147600	-82.650785	1146.331738	1342.635189	-93.239968	1061.028205	1346.268987	-58.312192	1046.005350	1230.619363	-28.783818	1010.074121	1226.009203	-92.310717	1014.050689	1501.659745	-519.050370	953.518528	1476.778014	-469.177130	945.041028	1423.600250	-538.902596	822.804842	1385.407447	-538.879094	822.260051	1383.892874	-465.512025	1141.503695	1231.010254	-56.427472	1285.102010	1201.100351	-154.272744	874.486331	1325.678256	-563.244403	1002.684686	1173.295828	-536.489629	944.098327	1145.092184	-552.896678	1275.380201	1134.905025	-144.876678	972.025148	1084.260044	-260.670502	
513	  4.275000	1136.160265	1040.626149	-420.662665	1127.989361	1022.216501	-189.209789	973.814106	1092.466830	-359.517404	1010.697211	887.935167	-132.708555	1007.165136	728.604680	-167.526463	909.980462	674.612441	-182.072718	1135.614107	915.787162	-492.583676	1251.600744	875.085588	-471.073319	1267.307213	733.518447	-455.904550	822.849455	448.475206	-242.953067	750.534136	439.936172	-176.761612	685.516049	329.437167	-237.364343	1376.929554	532.674963	-406.857429	1305.692679	446.399233	-448.581906	1303.440931	345.869829	-382.997047	517.806904	336.859433	-241.348768	592.378186	145.992912	-292.711548	560.493820	128.923381	-190.827707	1156.469922	257.111123	-361.725404	1348.667266	184.651042	-327.032120	1326.629341	141.100742	-424.880322	1081.319694	1528.298349	-483.943381	1156.689247	1518.684478	-135.633524	1190.780670	1471.063433	-306.103854	1075.841916	1552.376704	-310.194514	1141.479519	1438.563726	-84.280845	1147.447977	1348.309473	-93.355136	1061.845986	1351.829870	-59.472074	1046.715445	1236.118639	-28.779002	1009.366493	1231.484171	-91.959814	1014.643057	1505.641798	-520.023530	954.551658	1480.543833	-469.325419	944.353165	1428.532139	-539.002232	821.653061	1391.107351	-537.359097	822.237579	1389.159121	-464.508272	1141.853325	1235.883837	-57.666402	1284.869602	1205.435852	-156.024316	873.022990	1332.118878	-562.981334	1003.613722	1181.164519	-538.530548	945.449655	1151.880530	-554.171714	1275.453313	1139.329282	-145.685616	972.765485	1089.066637	-260.101781	
514	  4.283333	1135.833643	1042.819307	-419.886081	1127.975747	1025.979328	-188.430953	973.472630	1096.030675	-359.340601	1010.064998	892.361035	-133.604587	1009.674046	730.881476	-169.078499	913.316737	675.629665	-183.143751	1131.222727	909.256321	-488.820846	1246.293160	871.393020	-474.530677	1261.014754	730.136705	-453.642422	818.276439	453.253534	-246.271738	748.516899	447.475862	-177.902268	674.266692	343.424700	-237.768125	1381.170841	531.413133	-405.891846	1319.929012	438.683997	-448.995860	1325.566862	338.504950	-383.281542	505.453118	359.812247	-236.783687	571.673683	167.370716	-292.786493	542.404640	149.950005	-190.028593	1187.108535	238.447268	-362.125410	1383.696013	180.035568	-326.108756	1364.886356	132.984423	-423.708911	1082.165078	1530.259433	-485.976791	1156.847458	1522.094457	-137.446521	1191.052184	1473.806910	-307.650434	1076.194204	1555.133981	-312.154884	1141.515816	1442.795750	-85.774718	1147.938671	1353.004238	-93.584452	1062.064629	1356.186770	-60.633148	1046.586734	1240.795539	-29.035556	1008.023743	1236.183165	-91.921548	1015.377134	1508.129990	-521.614171	955.420277	1483.047023	-470.054279	944.249183	1431.806735	-539.534395	821.145719	1395.198839	-536.502085	822.613557	1392.618701	-464.040077	1141.619098	1239.203615	-58.332456	1284.114810	1206.959411	-156.898275	872.493777	1337.038898	-563.161423	1005.345720	1187.542794	-540.616507	947.638149	1157.163536	-555.634379	1274.328689	1141.002724	-145.183180	973.048954	1092.943254	-259.634384	
